<?xml version="1.0" encoding="UTF-8"?>
<!DOCTYPE svg PUBLIC "-//W3C//DTD SVG 1.1//EN" "http://www.w3.org/Graphics/SVG/1.1/DTD/svg11.dtd">
<!-- Creator: CorelDRAW 2017 -->
<svg xmlns="http://www.w3.org/2000/svg" xml:space="preserve" width="500px" height="500px" version="1.1" style="shape-rendering:geometricPrecision; text-rendering:geometricPrecision; image-rendering:optimizeQuality; fill-rule:evenodd; clip-rule:evenodd"
viewBox="0 0 500 500"
 xmlns:xlink="http://www.w3.org/1999/xlink">
 <defs>
  <style type="text/css">
   <![CDATA[
    .str0 {stroke:#2B2A29;stroke-width:0.9;stroke-miterlimit:22.9256}
    .fil1 {fill:#2B2A29}
    .fil0 {fill:url(#id0)}
   ]]>
  </style>
  <radialGradient id="id0" gradientUnits="userSpaceOnUse" gradientTransform="matrix(-0.0102782 1.01306 -1.01307 -0.0102782 511 4)" cx="250" cy="254.96" r="140.86" fx="250" fy="254.96">
   <stop offset="0" style="stop-opacity:1; stop-color:#50BCC2"/>
   <stop offset="0.470588" style="stop-opacity:0.619608; stop-color:#7BF291"/>
   <stop offset="0.431373" style="stop-opacity:1; stop-color:#A7DDE0"/>
   <stop offset="1" style="stop-opacity:0; stop-color:#FEFEFE"/>
  </radialGradient>
 </defs>
 <g id="Слой_x0020_1">
  <metadata id="CorelCorpID_0Corel-Layer"/>
  <path class="fil0" d="M250 2c136.97,0 248,111.03 248,248 0,136.97 -111.03,248 -248,248 -136.97,0 -248,-111.03 -248,-248 0,-136.97 111.03,-248 248,-248z"/>
  <path class="fil1 str0" d="M101.19 211.67c0,-12.97 4.34,-17.31 17.31,-17.31l263 0c12.97,0 17.31,4.34 17.31,17.31l0 120.72c0,12.03 -3.69,17.25 -15.87,17.25l-265.88 0c-12.18,0 -15.87,-5.22 -15.87,-17.25l0 -120.72zm174.89 34.56l6.26 -0.1 12.93 0.01 6.28 0.07 0.01 -25.96 -25.48 0 0 25.98zm-77.64 0l6.29 -0.1 12.93 0.01 6.26 0.07 0 -25.96 -25.48 0 0 25.98zm155.22 77.55l25.51 0 0.05 -24.44 0.02 -1.44 -25.58 0 0 25.88zm0 -77.55l6.29 -0.1 12.93 0.01 6.33 0.07 0 -25.96 -25.55 0 0 25.98zm-232.88 53.11l0.01 24.44 25.73 0 -0.18 -20.13 0.04 -5.75 -25.73 0 0.13 1.44zm38.79 24.44l25.64 0 0 -25.88 -25.64 0 0 25.88zm155.22 -77.55l6.35 -0.1 12.94 0.01 6.33 0.07 0.02 -25.96 -25.62 0 -0.02 25.98zm-77.6 -24.5l-0.01 24.5 6.35 -0.1 12.94 0.01 6.33 0.07 0.02 -25.96 -26.11 0 0.48 1.48zm77.6 102.05l25.64 0 0 -25.88 -25.75 0 0.11 25.88zm-155.21 -77.55l6.34 -0.1 12.94 0.01 6.33 0.07 0.03 -25.96 -25.76 0 0.12 25.98zm19.21 38.78l1.51 0.01 24.39 -0.02 -0.04 -25.78 -25.72 -0.08 -0.14 25.87zm116.53 -0.1l25.89 0.13 -0.06 -25.87 -25.76 -0.01 -0.07 25.75zm-77.68 0.12l25.89 0 0.03 -26 -25.8 0.13 -0.12 25.87zm38.8 0l25.94 0 -0.07 -25.86 -25.87 -0.06 0 25.92zm-135.65 -38.8l6.33 -0.1 12.93 0.01 6.29 0.07 0 -25.96 -26.41 0 0.86 25.98zm0 38.8l44.41 0 0.72 -26 -45.13 0.1 0 25.9zm213.29 0l45.27 0 -0.14 -26.01 -45.13 0.12 0 25.89zm-135.64 38.75l102.58 0 0.54 -25.88 -103.12 0 0 25.88zm-110.13 -120.93l0 138.36c14.88,27.65 19.29,21.36 68.99,21.36 33.62,0 209.92,1.57 229.91,-0.22 15.9,-1.42 18.37,-9.79 24.48,-21.14l0 -138.36c-5.83,-10.86 -8.44,-19.21 -23.18,-21.08l-131.5 -0.28c4.18,-32.51 22.64,-26.44 50.75,-33.51 23.99,-6.03 31.6,-23.07 32.27,-51.43l-13.02 -0.05c0.54,71.89 -74.4,12.86 -82.75,84.28 -21.78,4.58 -108.8,-2.04 -132.77,0.99 -14.74,1.87 -17.35,10.22 -23.18,21.08z"/>
 </g>
</svg>
